<?xml version="1.0" encoding="UTF-8" standalone="no"?>
<!DOCTYPE svg PUBLIC "-//W3C//DTD SVG 1.1//EN"
 "http://www.w3.org/Graphics/SVG/1.1/DTD/svg11.dtd">
<!-- Generated by graphviz version 5.0.0 (20220707.1540)
 -->
<!-- Title: dependencies Pages: 1 -->
<svg width="843pt" height="247pt"
 viewBox="0.00 0.00 843.00 246.80" xmlns="http://www.w3.org/2000/svg" xmlns:xlink="http://www.w3.org/1999/xlink">
<g id="graph0" class="graph" transform="scale(1 1) rotate(0) translate(4 242.8)">
<title>dependencies</title>
<polygon fill="white" stroke="transparent" points="-4,4 -4,-242.8 839,-242.8 839,4 -4,4"/>
<text text-anchor="middle" x="417.5" y="-8.2" font-family="sans-serif" font-size="14.00">dependencies</text>
<g id="clust1" class="cluster">
<title>cluster_AppModule</title>
<polygon fill="none" stroke="black" stroke-dasharray="1,5" points="8,-32.8 8,-230.8 827,-230.8 827,-32.8 8,-32.8"/>
</g>
<g id="clust8" class="cluster">
<title>cluster_AppModule_imports</title>
<polygon fill="none" stroke="black" points="675,-40.8 675,-92.8 819,-92.8 819,-40.8 675,-40.8"/>
</g>
<g id="clust2" class="cluster">
<title>cluster_AppModule_declarations</title>
<polygon fill="none" stroke="black" points="16,-40.8 16,-92.8 667,-92.8 667,-40.8 16,-40.8"/>
</g>
<g id="clust10" class="cluster">
<title>cluster_AppModule_bootstrap</title>
<polygon fill="none" stroke="black" points="349,-170.8 349,-222.8 473,-222.8 473,-170.8 349,-170.8"/>
</g>
<!-- AppComponent -->
<g id="node1" class="node">
<title>AppComponent</title>
<polygon fill="#ffffb3" stroke="black" points="658.94,-84.8 553.06,-84.8 553.06,-48.8 658.94,-48.8 658.94,-84.8"/>
<text text-anchor="middle" x="606" y="-62.6" font-family="Times,serif" font-size="14.00">AppComponent</text>
</g>
<!-- AppModule -->
<g id="node6" class="node">
<title>AppModule</title>
<polygon fill="#8dd3c7" stroke="black" points="452.66,-149.8 449.66,-153.8 428.66,-153.8 425.66,-149.8 369.34,-149.8 369.34,-113.8 452.66,-113.8 452.66,-149.8"/>
<text text-anchor="middle" x="411" y="-127.6" font-family="Times,serif" font-size="14.00">AppModule</text>
</g>
<!-- AppComponent&#45;&gt;AppModule -->
<g id="edge1" class="edge">
<title>AppComponent&#45;&gt;AppModule</title>
<path fill="none" stroke="black" d="M606,-84.82C606,-102.17 606,-125.8 606,-125.8 606,-125.8 462.83,-125.8 462.83,-125.8"/>
<polygon fill="black" stroke="black" points="462.83,-122.3 452.83,-125.8 462.83,-129.3 462.83,-122.3"/>
</g>
<!-- FilterComponent -->
<g id="node2" class="node">
<title>FilterComponent</title>
<polygon fill="#ffffb3" stroke="black" points="534.66,-84.8 423.34,-84.8 423.34,-48.8 534.66,-48.8 534.66,-84.8"/>
<text text-anchor="middle" x="479" y="-62.6" font-family="Times,serif" font-size="14.00">FilterComponent</text>
</g>
<!-- FilterComponent&#45;&gt;AppModule -->
<g id="edge2" class="edge">
<title>FilterComponent&#45;&gt;AppModule</title>
<path fill="none" stroke="black" d="M438,-84.91C438,-84.91 438,-103.79 438,-103.79"/>
<polygon fill="black" stroke="black" points="434.5,-103.79 438,-113.79 441.5,-103.79 434.5,-103.79"/>
</g>
<!-- HeaderComponent -->
<g id="node3" class="node">
<title>HeaderComponent</title>
<polygon fill="#ffffb3" stroke="black" points="404.75,-84.8 283.25,-84.8 283.25,-48.8 404.75,-48.8 404.75,-84.8"/>
<text text-anchor="middle" x="344" y="-62.6" font-family="Times,serif" font-size="14.00">HeaderComponent</text>
</g>
<!-- HeaderComponent&#45;&gt;AppModule -->
<g id="edge3" class="edge">
<title>HeaderComponent&#45;&gt;AppModule</title>
<path fill="none" stroke="black" d="M387.02,-84.91C387.02,-84.91 387.02,-103.79 387.02,-103.79"/>
<polygon fill="black" stroke="black" points="383.52,-103.79 387.02,-113.79 390.52,-103.79 383.52,-103.79"/>
</g>
<!-- ListComponent -->
<g id="node4" class="node">
<title>ListComponent</title>
<polygon fill="#ffffb3" stroke="black" points="265.61,-84.8 162.39,-84.8 162.39,-48.8 265.61,-48.8 265.61,-84.8"/>
<text text-anchor="middle" x="214" y="-62.6" font-family="Times,serif" font-size="14.00">ListComponent</text>
</g>
<!-- ListComponent&#45;&gt;AppModule -->
<g id="edge4" class="edge">
<title>ListComponent&#45;&gt;AppModule</title>
<path fill="none" stroke="black" d="M214,-84.82C214,-102.17 214,-125.8 214,-125.8 214,-125.8 359.22,-125.8 359.22,-125.8"/>
<polygon fill="black" stroke="black" points="359.22,-129.3 369.22,-125.8 359.22,-122.3 359.22,-129.3"/>
</g>
<!-- TshirtsComponent -->
<g id="node5" class="node">
<title>TshirtsComponent</title>
<polygon fill="#ffffb3" stroke="black" points="144.22,-84.8 23.78,-84.8 23.78,-48.8 144.22,-48.8 144.22,-84.8"/>
<text text-anchor="middle" x="84" y="-62.6" font-family="Times,serif" font-size="14.00">TshirtsComponent</text>
</g>
<!-- TshirtsComponent&#45;&gt;AppModule -->
<g id="edge5" class="edge">
<title>TshirtsComponent&#45;&gt;AppModule</title>
<path fill="none" stroke="black" d="M84,-85.08C84,-106.12 84,-137.8 84,-137.8 84,-137.8 359.25,-137.8 359.25,-137.8"/>
<polygon fill="black" stroke="black" points="359.25,-141.3 369.25,-137.8 359.25,-134.3 359.25,-141.3"/>
</g>
<!-- AppComponent  -->
<g id="node8" class="node">
<title>AppComponent </title>
<polygon fill="#80b1d3" stroke="black" points="465.44,-214.8 356.56,-214.8 356.56,-178.8 465.44,-178.8 465.44,-214.8"/>
<text text-anchor="middle" x="411" y="-192.6" font-family="Times,serif" font-size="14.00">AppComponent </text>
</g>
<!-- AppModule&#45;&gt;AppComponent  -->
<g id="edge7" class="edge">
<title>AppModule&#45;&gt;AppComponent </title>
<path fill="none" stroke="black" stroke-dasharray="1,5" d="M411,-149.91C411,-149.91 411,-168.79 411,-168.79"/>
<polygon fill="black" stroke="black" points="407.5,-168.79 411,-178.79 414.5,-168.79 407.5,-168.79"/>
</g>
<!-- AppRoutingModule -->
<g id="node7" class="node">
<title>AppRoutingModule</title>
<polygon fill="#8dd3c7" stroke="black" points="811.28,-84.8 808.28,-88.8 787.28,-88.8 784.28,-84.8 682.72,-84.8 682.72,-48.8 811.28,-48.8 811.28,-84.8"/>
<text text-anchor="middle" x="747" y="-62.6" font-family="Times,serif" font-size="14.00">AppRoutingModule</text>
</g>
<!-- AppRoutingModule&#45;&gt;AppModule -->
<g id="edge6" class="edge">
<title>AppRoutingModule&#45;&gt;AppModule</title>
<path fill="none" stroke="black" d="M747,-85.08C747,-106.12 747,-137.8 747,-137.8 747,-137.8 462.88,-137.8 462.88,-137.8"/>
<polygon fill="black" stroke="black" points="462.88,-134.3 452.88,-137.8 462.88,-141.3 462.88,-134.3"/>
</g>
</g>
</svg>
