<?xml version="1.0" encoding="UTF-8" standalone="no"?>
<!DOCTYPE svg PUBLIC "-//W3C//DTD SVG 1.1//EN"
 "http://www.w3.org/Graphics/SVG/1.1/DTD/svg11.dtd">
<!-- Generated by graphviz version 5.0.0 (20220707.1540)
 -->
<!-- Title: dependencies Pages: 1 -->
<svg width="843pt" height="247pt"
 viewBox="0.00 0.00 843.00 246.80" xmlns="http://www.w3.org/2000/svg" xmlns:xlink="http://www.w3.org/1999/xlink">
<g id="graph0" class="graph" transform="scale(1 1) rotate(0) translate(4 242.8)">
<title>dependencies</title>
<polygon fill="white" stroke="transparent" points="-4,4 -4,-242.8 839,-242.8 839,4 -4,4"/>
<text text-anchor="middle" x="417.5" y="-8.2" font-family="sans-serif" font-size="14.00">dependencies</text>
<g id="clust1" class="cluster">
<title>cluster_AppModule</title>
<polygon fill="none" stroke="black" stroke-dasharray="1,5" points="8,-32.8 8,-230.8 827,-230.8 827,-32.8 8,-32.8"/>
</g>
<g id="clust2" class="cluster">
<title>cluster_AppModule_declarations</title>
<polygon fill="none" stroke="black" points="168,-40.8 168,-92.8 819,-92.8 819,-40.8 168,-40.8"/>
</g>
<g id="clust8" class="cluster">
<title>cluster_AppModule_imports</title>
<polygon fill="none" stroke="black" points="16,-40.8 16,-92.8 160,-92.8 160,-40.8 16,-40.8"/>
</g>
<g id="clust10" class="cluster">
<title>cluster_AppModule_bootstrap</title>
<polygon fill="none" stroke="black" points="369,-170.8 369,-222.8 493,-222.8 493,-170.8 369,-170.8"/>
</g>
<!-- AppComponent -->
<g id="node1" class="node">
<title>AppComponent</title>
<polygon fill="#ffffb3" stroke="black" points="810.94,-84.8 705.06,-84.8 705.06,-48.8 810.94,-48.8 810.94,-84.8"/>
<text text-anchor="middle" x="758" y="-62.6" font-family="Times,serif" font-size="14.00">AppComponent</text>
</g>
<!-- AppModule -->
<g id="node6" class="node">
<title>AppModule</title>
<polygon fill="#8dd3c7" stroke="black" points="472.66,-149.8 469.66,-153.8 448.66,-153.8 445.66,-149.8 389.34,-149.8 389.34,-113.8 472.66,-113.8 472.66,-149.8"/>
<text text-anchor="middle" x="431" y="-127.6" font-family="Times,serif" font-size="14.00">AppModule</text>
</g>
<!-- AppComponent&#45;&gt;AppModule -->
<g id="edge1" class="edge">
<title>AppComponent&#45;&gt;AppModule</title>
<path fill="none" stroke="black" d="M758,-85.08C758,-106.12 758,-137.8 758,-137.8 758,-137.8 482.75,-137.8 482.75,-137.8"/>
<polygon fill="black" stroke="black" points="482.75,-134.3 472.75,-137.8 482.75,-141.3 482.75,-134.3"/>
</g>
<!-- FilterComponent -->
<g id="node2" class="node">
<title>FilterComponent</title>
<polygon fill="#ffffb3" stroke="black" points="686.66,-84.8 575.34,-84.8 575.34,-48.8 686.66,-48.8 686.66,-84.8"/>
<text text-anchor="middle" x="631" y="-62.6" font-family="Times,serif" font-size="14.00">FilterComponent</text>
</g>
<!-- FilterComponent&#45;&gt;AppModule -->
<g id="edge2" class="edge">
<title>FilterComponent&#45;&gt;AppModule</title>
<path fill="none" stroke="black" d="M631,-84.82C631,-102.17 631,-125.8 631,-125.8 631,-125.8 482.93,-125.8 482.93,-125.8"/>
<polygon fill="black" stroke="black" points="482.93,-122.3 472.93,-125.8 482.93,-129.3 482.93,-122.3"/>
</g>
<!-- HeaderComponent -->
<g id="node3" class="node">
<title>HeaderComponent</title>
<polygon fill="#ffffb3" stroke="black" points="556.75,-84.8 435.25,-84.8 435.25,-48.8 556.75,-48.8 556.75,-84.8"/>
<text text-anchor="middle" x="496" y="-62.6" font-family="Times,serif" font-size="14.00">HeaderComponent</text>
</g>
<!-- HeaderComponent&#45;&gt;AppModule -->
<g id="edge3" class="edge">
<title>HeaderComponent&#45;&gt;AppModule</title>
<path fill="none" stroke="black" d="M453.98,-84.91C453.98,-84.91 453.98,-103.79 453.98,-103.79"/>
<polygon fill="black" stroke="black" points="450.48,-103.79 453.98,-113.79 457.48,-103.79 450.48,-103.79"/>
</g>
<!-- ListComponent -->
<g id="node4" class="node">
<title>ListComponent</title>
<polygon fill="#ffffb3" stroke="black" points="417.61,-84.8 314.39,-84.8 314.39,-48.8 417.61,-48.8 417.61,-84.8"/>
<text text-anchor="middle" x="366" y="-62.6" font-family="Times,serif" font-size="14.00">ListComponent</text>
</g>
<!-- ListComponent&#45;&gt;AppModule -->
<g id="edge4" class="edge">
<title>ListComponent&#45;&gt;AppModule</title>
<path fill="none" stroke="black" d="M403.36,-84.91C403.36,-84.91 403.36,-103.79 403.36,-103.79"/>
<polygon fill="black" stroke="black" points="399.86,-103.79 403.36,-113.79 406.86,-103.79 399.86,-103.79"/>
</g>
<!-- TshirtsComponent -->
<g id="node5" class="node">
<title>TshirtsComponent</title>
<polygon fill="#ffffb3" stroke="black" points="296.22,-84.8 175.78,-84.8 175.78,-48.8 296.22,-48.8 296.22,-84.8"/>
<text text-anchor="middle" x="236" y="-62.6" font-family="Times,serif" font-size="14.00">TshirtsComponent</text>
</g>
<!-- TshirtsComponent&#45;&gt;AppModule -->
<g id="edge5" class="edge">
<title>TshirtsComponent&#45;&gt;AppModule</title>
<path fill="none" stroke="black" d="M236,-84.82C236,-102.17 236,-125.8 236,-125.8 236,-125.8 379.17,-125.8 379.17,-125.8"/>
<polygon fill="black" stroke="black" points="379.17,-129.3 389.17,-125.8 379.17,-122.3 379.17,-129.3"/>
</g>
<!-- AppComponent  -->
<g id="node8" class="node">
<title>AppComponent </title>
<polygon fill="#80b1d3" stroke="black" points="485.44,-214.8 376.56,-214.8 376.56,-178.8 485.44,-178.8 485.44,-214.8"/>
<text text-anchor="middle" x="431" y="-192.6" font-family="Times,serif" font-size="14.00">AppComponent </text>
</g>
<!-- AppModule&#45;&gt;AppComponent  -->
<g id="edge7" class="edge">
<title>AppModule&#45;&gt;AppComponent </title>
<path fill="none" stroke="black" stroke-dasharray="1,5" d="M431,-149.91C431,-149.91 431,-168.79 431,-168.79"/>
<polygon fill="black" stroke="black" points="427.5,-168.79 431,-178.79 434.5,-168.79 427.5,-168.79"/>
</g>
<!-- AppRoutingModule -->
<g id="node7" class="node">
<title>AppRoutingModule</title>
<polygon fill="#8dd3c7" stroke="black" points="152.28,-84.8 149.28,-88.8 128.28,-88.8 125.28,-84.8 23.72,-84.8 23.72,-48.8 152.28,-48.8 152.28,-84.8"/>
<text text-anchor="middle" x="88" y="-62.6" font-family="Times,serif" font-size="14.00">AppRoutingModule</text>
</g>
<!-- AppRoutingModule&#45;&gt;AppModule -->
<g id="edge6" class="edge">
<title>AppRoutingModule&#45;&gt;AppModule</title>
<path fill="none" stroke="black" d="M88,-85.08C88,-106.12 88,-137.8 88,-137.8 88,-137.8 379.28,-137.8 379.28,-137.8"/>
<polygon fill="black" stroke="black" points="379.28,-141.3 389.28,-137.8 379.28,-134.3 379.28,-141.3"/>
</g>
</g>
</svg>
